<svg width="18" height="18" viewBox="0 0 18 18" fill="none" xmlns="http://www.w3.org/2000/svg">
<g id="content_copy_FILL0_wght400_GRAD0_opsz48">
<path id="Vector" d="M3.375 16.4812C3.075 16.4812 2.8125 16.3687 2.5875 16.1437C2.3625 15.9187 2.25 15.6562 2.25 15.3562V4.05H3.375V15.3562H12.2625V16.4812H3.375ZM5.625 14.2312C5.325 14.2312 5.0625 14.1187 4.8375 13.8937C4.6125 13.6687 4.5 13.4062 4.5 13.1062V2.60625C4.5 2.30625 4.6125 2.04375 4.8375 1.81875C5.0625 1.59375 5.325 1.48125 5.625 1.48125H13.875C14.175 1.48125 14.4375 1.59375 14.6625 1.81875C14.8875 2.04375 15 2.30625 15 2.60625V13.1062C15 13.4062 14.8875 13.6687 14.6625 13.8937C14.4375 14.1187 14.175 14.2312 13.875 14.2312H5.625ZM5.625 13.1062H13.875V2.60625H5.625V13.1062Z" fill="white"/>
</g>
</svg>
